<svg width="195" height="33" viewBox="0 0 195 33" fill="none" xmlns="http://www.w3.org/2000/svg">
<path d="M22.2585 0.973146C21.8337 0.875342 18.4384 0.413053 18.1397 0.470791C18.2601 0.959129 19.4195 0.909465 19.7701 1.09898C19.6004 1.20128 17.6825 1.1082 17.3375 1.09388L17.2741 1.1146C16.6475 1.32498 16.7653 1.65039 16.1009 1.48464C13.9312 1.96269 12.5317 1.8735 10.3182 2.62943C10.7064 2.89481 12.7093 2.55775 13.301 2.55105C13.9092 2.54411 14.4151 2.54747 15.0451 2.58091C14.081 2.91248 13.0673 3.08341 12.1405 3.40562C10.0797 4.12217 8.07214 5.00066 5.90124 5.33048C5.75735 5.35234 5.67859 5.40208 5.61148 5.52594C5.98388 5.7984 13.1607 4.71037 14.272 4.66154C13.6383 4.93424 12.7242 5.21401 12.0511 5.39568C9.34116 6.12686 6.90709 7.4444 4.2867 8.39495C4.28083 8.62111 4.32867 8.70162 4.41459 8.90424C6.48045 8.83317 7.15396 8.45025 8.9616 7.92634C8.28649 8.44484 7.48524 8.75623 6.93261 9.23155L6.92133 9.26209C6.822 9.52306 6.6887 9.60639 6.70889 9.84732C6.92537 10.2942 7.29625 10.8165 7.84423 10.7493C8.01242 10.6507 8.04487 10.6133 8.23141 10.6136L8.25411 10.7059C7.98904 11.0269 7.80973 11.1841 7.50458 11.4573C8.58584 10.9799 10.0544 10.0301 11.0628 9.68713C11.7457 9.3567 13.016 8.8919 13.757 8.72706L13.8625 8.78198L13.8118 8.71647L13.9194 8.74488C13.5928 8.99374 11.6275 9.77397 11.0912 10.0197C10.0496 10.8343 8.9459 11.3216 8.01089 12.0897L8.17215 12.2998C8.53953 12.0379 9.35998 11.4464 9.76811 11.5077L9.77869 11.6095C9.30528 11.9935 7.65152 13.2017 7.50694 13.7608C7.64161 13.8154 10.1569 12.9922 10.4569 12.8652C10.5093 12.8429 10.5613 12.8198 10.6128 12.7956C9.18554 14.5526 8.36967 15.7799 7.74559 18.0093C7.6877 18.2161 7.59964 18.3333 7.77499 18.4921C8.02537 18.3252 8.72151 16.4464 9.2132 15.8149C10.4647 14.2072 11.6016 13.0677 13.2507 11.8842C12.9437 12.6721 12.3953 13.3253 12.0438 14.1633C12.4897 13.7958 13.1351 13.221 13.59 12.9205C12.6912 14.3584 11.4651 15.4342 11.4296 17.3001C11.4235 17.62 11.3069 18.1129 11.5025 18.3837C11.6932 18.2804 12.2871 16.4138 12.6591 15.967C13.1078 15.4284 13.5805 14.5208 14.1722 14.0165C14.7191 13.4595 15.2691 12.8106 15.8688 12.3147C14.7039 14.2432 13.0475 15.9382 12.2909 18.1389C12.037 18.8775 11.928 18.7558 12.2675 19.216C12.333 19.3046 12.1209 20.3736 12.1369 20.6895C12.5662 19.5069 13.5636 16.9673 14.2683 15.9168C13.8003 17.9217 13.4499 19.3597 13.9291 21.429C14.0015 21.7416 14.1037 22.5636 14.3546 22.7532C14.4884 22.5842 14.4691 21.3063 14.4903 20.967C14.638 18.6028 16.2954 16.2383 18.2169 14.8644C15.8866 17.8041 15.4476 19.267 16.4797 23.016C16.586 22.4823 16.8097 21.0788 17.1194 20.7177C17.2345 20.7594 17.2266 20.7557 17.3093 20.8466C17.6431 20.4442 17.8541 19.294 18.1619 18.9551L18.2367 18.9774C18.2172 19.6273 18.1096 20.4081 18.1117 21.0362C18.1145 21.8786 19.0689 25.2217 19.8504 25.5042C19.6536 24.262 19.5103 23.0119 19.4209 21.7574C19.8196 22.4401 21.0236 25.1707 21.566 25.4212C21.6503 25.0963 21.3806 23.7866 21.3697 23.3844C21.3564 22.8968 21.2749 19.6801 21.4871 19.4237L21.2497 19.2558C20.9792 18.6884 20.7647 18.2521 20.6765 17.6278C20.6223 17.1856 21.4085 16.0357 21.5988 15.5463C21.7381 15.188 21.8008 14.9712 21.8994 14.5971C21.0586 15.195 19.8832 15.6707 18.8848 16.3155C19.7751 15.2452 21.238 13.8751 22.6345 13.5484L22.7182 13.2466L22.7128 13.139C23.0184 12.6085 24.0432 12.4568 24.3403 12.1361C23.8337 11.788 21.635 12.6473 21.07 12.9082C20.7951 13.035 19.7785 13.7523 19.5767 13.7188C19.5931 13.6101 19.5912 13.5848 19.6647 13.4963C21.2696 11.5661 24.1466 11.3589 26.5188 11.1729C26.5314 10.7579 26.3734 10.25 25.9992 10.0339C25.6913 10.0292 25.3794 9.99433 25.1436 9.78882C25.1888 9.76886 26.2051 9.75325 26.4673 9.71318C25.7104 9.48162 24.6926 8.29897 25.5152 7.73149C24.806 7.3533 24.0506 7.13941 23.3984 6.81492C21.8989 6.06897 21.1876 5.47597 19.5167 5.13457C18.9068 5.06525 18.4236 4.93111 17.8281 4.77854C18.5162 4.78075 19.0113 4.78242 19.6817 4.97209C19.7932 4.93804 19.9274 4.86576 20.0339 4.82569C21.0617 4.43996 21.8084 5.13662 23.0219 4.83338L23.0055 4.77245C22.7604 4.67571 22.4302 4.59992 22.1684 4.53167C22.3026 4.42388 23.0146 4.4577 23.2307 4.46509L23.2034 4.33621C23.0079 4.21708 22.6687 4.22081 22.4304 4.20786C22.0332 3.76835 20.9903 1.6037 21.1736 1.02959L22.2585 0.973146Z" fill="#D1D0D0"/>
<path d="M32.3555 5.44336C30.9942 6.39071 31.3854 7.3491 30.4547 8.25395C30.1561 8.27809 30.2097 8.12278 30.014 8.04668C29.5251 7.85923 28.5627 8.32593 28.0193 8.37316C27.3892 8.428 26.1472 7.95733 25.5145 7.73209C24.6919 8.29957 25.7097 9.48222 26.4666 9.71378C27.0129 9.73846 28.659 9.75057 29.1461 9.69291C28.6906 10.2215 26.8841 9.82911 25.9985 10.0345C26.3727 10.2506 26.5307 10.7585 26.5182 11.1735C28.8631 11.124 30.4888 11.358 32.6073 12.3052C33.0195 12.4896 34.9832 12.7458 35.2999 12.4562C34.9027 11.3612 30.6704 10.7794 29.9594 9.82332C31.7138 10.4399 34.2949 11.0993 35.7614 12.0464C36.4929 12.5188 36.0284 13.879 36.1042 14.5258L36.2253 14.5638C36.7366 14.3208 37.4106 12.8677 37.5784 12.3748C38.6392 9.25942 37.0328 7.2321 34.1019 6.27592C33.7307 6.15488 32.855 5.63714 32.3555 5.44336ZM30.9691 8.75683C31.5901 7.8558 32.3188 7.67702 33.2828 7.28253C32.8363 8.13086 31.7933 8.24801 31.0025 8.74777C30.9913 8.75082 30.9802 8.75379 30.9691 8.75683Z" fill="#FCFBFC"/>
<path d="M24.9154 16.7344C24.8566 17.0794 24.9468 17.9941 24.8051 18.1422C24.2979 17.1672 24.5902 15.815 24.9586 14.8457L24.8624 14.7881C24.1151 15.1025 23.6517 17.5517 23.7911 18.3301L23.8052 18.4053L23.7263 18.4955C23.1332 18.1249 23.4099 16.6471 23.5016 16.0879C23.4938 15.8137 23.5042 15.7485 23.3527 15.5164C22.9464 16.1726 22.7031 17.6043 22.3643 17.7976C21.8048 16.8943 22.6699 15.5874 22.5843 15.316C21.9152 15.4538 21.0976 17.3187 20.6786 17.6279C20.7667 18.2522 20.9812 18.6885 21.2518 19.2559L21.4891 19.4238C21.6876 19.6039 21.6551 20.9505 21.9103 21.6292C22.6209 23.5199 24.5297 26.6982 26.1153 27.8963C25.5991 26.8808 24.7716 25.3397 24.4153 24.2859C23.9643 22.9518 23.5893 21.6305 23.1157 20.2794C23.5745 20.9609 24.0499 21.8757 24.4619 22.5811C25.0582 23.6021 27.605 26.8002 28.4944 27.3786C28.2091 26.8936 27.8333 26.3354 27.6291 25.8348L27.6712 25.7891C28.5205 26.5635 30.052 28.3401 30.6937 29.2785C31.1094 29.8863 31.5072 30.7337 31.9579 31.3667C32.051 31.2356 32.0854 31.0746 32.1331 30.918C31.3055 29.2028 30.7206 27.8794 29.508 26.359C28.6868 25.597 27.7706 24.5436 27.2571 23.545C27.9452 24.1669 28.992 25.4503 29.8454 26.2692C30.5841 27.0227 31.861 28.3802 32.6914 28.9647C32.1423 27.9125 31.6844 27.4944 31.1022 26.6098C29.4073 24.0351 26.4305 20.5364 25.4699 17.6782C25.1827 17.4658 25.1665 17.1352 25.082 16.77L24.9154 16.7344Z" fill="#E3E2E2"/>
<path d="M26.9324 1.05927C27.2563 1.36487 27.8989 1.74291 28.0747 2.00464C27.8448 2.00296 26.994 1.51912 26.6814 1.38932C25.9106 1.06932 22.2304 -0.216762 21.6136 0.0316347L21.5868 0.132638C21.6195 0.165163 23.8367 1.13856 24.1262 1.29471C23.5684 1.22905 22.843 1.06871 22.2599 0.9735L21.1749 1.02994C20.9916 1.60405 22.0346 3.7687 22.4317 4.20821C22.6701 4.22116 23.0093 4.21743 23.2047 4.33656L23.232 4.46544C23.9763 4.66974 25.25 4.70752 26.3422 5.00299C27.7499 5.38377 29.1333 6.34041 30.4644 6.37804C30.7078 6.38497 30.8698 6.00183 31.0488 5.76547C31.3275 5.72175 31.0659 5.94882 31.416 6.12462C31.6427 5.98682 31.8019 5.60482 31.9331 5.35574C31.6856 4.87304 31.4455 4.34212 31.2119 3.84906L32.2734 5.14573C31.6457 3.58452 30.7144 2.65499 29.1916 1.92961C28.5172 1.60839 27.6649 1.17954 26.9324 1.05927Z" fill="#FCFBFC"/>
<path d="M6.93603 9.23242C6.19534 9.62821 5.3141 10.4985 4.68706 11.0554C2.65304 12.8616 1.0065 14.4884 0.252097 17.1989C0.159929 17.5298 0.00705338 17.9261 0.000502586 18.2743L0.0688267 18.3171C0.626634 17.8555 1.47283 16.0883 2.25557 15.2988C3.421 14.1235 4.44658 13.1082 5.82133 12.1093C6.42324 11.6718 7.31407 11.1667 7.84766 10.7501C7.29968 10.8174 6.9288 10.2951 6.71232 9.84819C6.69213 9.60726 6.82543 9.52393 6.92476 9.26297L6.93603 9.23242Z" fill="#8D8B8C"/>
<path d="M26.7094 5.95996C26.158 6.04009 25.8634 6.41067 26.0603 6.9524C26.2243 7.40349 26.4639 7.46496 26.8661 7.656C27.1998 7.51874 27.4156 7.39489 27.5078 7.04099C27.4176 6.71597 26.9694 6.28735 26.7094 5.95996Z" fill="#FCFBFC"/>
<path d="M22.6348 13.5483C23.4265 13.4221 25.6915 12.6279 26.0312 11.9042C25.7538 11.8669 23.2838 13.0558 22.7798 13.2261L22.7185 13.2466L22.6348 13.5483Z" fill="#FCFBFC" fill-opacity="0.980392"/>
<path d="M28.8125 12.5527C27.9156 12.5052 25.9333 14.2109 26.1318 15.152C26.3336 15.0274 26.8973 14.0628 27.158 13.8101C27.581 13.4003 28.4856 12.9475 28.8125 12.5527Z" fill="#FCFBFC" fill-opacity="0.894118"/>
<path d="M17.3398 1.09374C16.8431 1.04346 14.9956 0.812663 14.6556 1.08315L14.6082 1.22056C14.9968 1.45022 15.7235 1.26193 16.1033 1.4845C16.7676 1.65025 16.6499 1.32484 17.2765 1.11446L17.3398 1.09374Z" fill="#FCFBFC" fill-opacity="0.847059"/>
<path d="M29.8672 12.5273C29.27 12.4346 27.8687 13.6909 27.8058 14.3237C27.851 14.3257 27.87 14.3305 27.9101 14.3221C27.949 14.3139 29.7989 12.6374 29.8672 12.5273Z" fill="#FCFBFC" fill-opacity="0.890196"/>
<path d="M31.9572 31.3667C31.9976 31.5996 32.792 32.9 32.9766 32.9778C32.9794 32.4931 32.3767 31.3945 32.1324 30.918C32.0847 31.0745 32.0503 31.2355 31.9572 31.3667Z" fill="#FCFBFC" fill-opacity="0.87451"/>
<path d="M25.4688 17.6785C25.1924 16.7803 25.4955 15.7949 25.2345 15.4365C24.9821 15.8841 24.9681 16.2335 24.9143 16.7346L25.0809 16.7703C25.1654 17.1355 25.1816 17.466 25.4688 17.6785Z" fill="#FCFBFC" fill-opacity="0.917647"/>
<path d="M27.3086 12.8916C26.7955 13.0094 25.7091 14.0229 25.7512 14.5722L25.9268 14.5529C26.2087 14.0788 26.9139 13.3285 27.3086 12.8916Z" fill="#FCFBFC" fill-opacity="0.858824"/>
<path d="M23.5024 16.0877C23.7412 15.5902 23.9565 15.2419 24.0547 14.6925L23.9909 14.6631C23.7654 14.91 23.4459 15.2075 23.3535 15.5162C23.505 15.7483 23.4946 15.8135 23.5024 16.0877Z" fill="#FCFBFC" fill-opacity="0.913725"/>
<path d="M4.28617 8.39551C3.84612 8.52454 3.22791 8.68846 2.82748 8.8811C3.27064 8.89436 3.99496 8.93496 4.41406 8.90479C4.32814 8.70218 4.2803 8.62166 4.28617 8.39551Z" fill="#979397" fill-opacity="0.988235"/>
<path d="M8.01062 12.0898C7.62488 12.2992 7.5315 12.3692 7.20579 12.6643L7.18019 12.7803C7.37192 12.7839 7.8211 12.4301 8.17188 12.3L8.01062 12.0898Z" fill="#979397" fill-opacity="0.572549"/>
<path d="M60.5827 6.19726L60.3027 8.46526H54.9547V25.4893H52.2947V8.46526H46.8067V6.19726H60.5827ZM69.0759 10.3973C69.5986 10.3973 70.0839 10.4533 70.5319 10.5653L70.0559 13.0853C69.6079 12.9733 69.1786 12.9173 68.7679 12.9173C67.8532 12.9173 67.1159 13.2533 66.5559 13.9253C65.9959 14.5973 65.5572 15.6426 65.2399 17.0613V25.4893H62.6639V10.7333H64.8759L65.1279 13.7293C65.5199 12.6279 66.0519 11.7973 66.7239 11.2373C67.3959 10.6773 68.1799 10.3973 69.0759 10.3973ZM83.761 17.6773C83.761 18.1066 83.7424 18.5453 83.705 18.9933H74.297C74.409 20.6173 74.8197 21.8119 75.529 22.5773C76.2384 23.3426 77.153 23.7253 78.273 23.7253C78.9824 23.7253 79.6357 23.6226 80.233 23.4173C80.8304 23.2119 81.4557 22.8853 82.109 22.4373L83.229 23.9773C81.661 25.2093 79.9437 25.8253 78.077 25.8253C76.0237 25.8253 74.4184 25.1533 73.261 23.8093C72.1224 22.4653 71.553 20.6173 71.553 18.2653C71.553 16.7346 71.7957 15.3813 72.281 14.2053C72.785 13.0106 73.4944 12.0773 74.409 11.4053C75.3424 10.7333 76.4344 10.3973 77.685 10.3973C79.645 10.3973 81.1477 11.0413 82.193 12.3293C83.2384 13.6173 83.761 15.3999 83.761 17.6773ZM81.213 16.9213C81.213 15.4653 80.9237 14.3546 80.345 13.5893C79.7664 12.8239 78.8984 12.4413 77.741 12.4413C75.6317 12.4413 74.4837 13.9906 74.297 17.0893H81.213V16.9213ZM94.8188 10.3973C96.1628 10.3973 97.2082 10.7986 97.9548 11.6013C98.7202 12.4039 99.1028 13.5053 99.1028 14.9053V25.4893H96.5268V15.2693C96.5268 14.2239 96.3308 13.4866 95.9388 13.0573C95.5468 12.6279 94.9682 12.4133 94.2028 12.4133C93.4188 12.4133 92.7282 12.6373 92.1308 13.0853C91.5335 13.5333 90.9735 14.1773 90.4508 15.0173V25.4893H87.8748V10.7333H90.0868L90.3108 12.9173C90.8335 12.1333 91.4775 11.5173 92.2428 11.0693C93.0268 10.6213 93.8855 10.3973 94.8188 10.3973ZM109.657 10.3973C110.534 10.3973 111.337 10.5279 112.065 10.7893C112.793 11.0319 113.493 11.4333 114.165 11.9933L112.933 13.6173C112.41 13.2439 111.897 12.9733 111.393 12.8053C110.908 12.6186 110.366 12.5253 109.769 12.5253C108.574 12.5253 107.641 13.0013 106.969 13.9533C106.316 14.9053 105.989 16.3146 105.989 18.1813C105.989 20.0479 106.316 21.4293 106.969 22.3253C107.622 23.2026 108.556 23.6413 109.769 23.6413C110.348 23.6413 110.88 23.5573 111.365 23.3893C111.85 23.2026 112.392 22.9133 112.989 22.5213L114.165 24.2013C112.821 25.2839 111.318 25.8253 109.657 25.8253C107.66 25.8253 106.082 25.1533 104.925 23.8093C103.786 22.4653 103.217 20.6079 103.217 18.2373C103.217 16.6693 103.478 15.2973 104.001 14.1213C104.524 12.9453 105.261 12.0306 106.213 11.3773C107.184 10.7239 108.332 10.3973 109.657 10.3973ZM124.596 10.3973C125.94 10.3973 126.986 10.7986 127.732 11.6013C128.498 12.4039 128.88 13.5053 128.88 14.9053V25.4893H126.304V15.2693C126.304 14.2239 126.099 13.4866 125.688 13.0573C125.296 12.6279 124.718 12.4133 123.952 12.4133C123.187 12.4133 122.506 12.6373 121.908 13.0853C121.311 13.5333 120.751 14.1679 120.228 14.9893V25.4893H117.652V4.82526L120.228 4.54526V12.7773C121.386 11.1906 122.842 10.3973 124.596 10.3973ZM145.202 17.6773C145.202 18.1066 145.184 18.5453 145.146 18.9933H135.738C135.85 20.6173 136.261 21.8119 136.97 22.5773C137.68 23.3426 138.594 23.7253 139.714 23.7253C140.424 23.7253 141.077 23.6226 141.674 23.4173C142.272 23.2119 142.897 22.8853 143.55 22.4373L144.67 23.9773C143.102 25.2093 141.385 25.8253 139.518 25.8253C137.465 25.8253 135.86 25.1533 134.702 23.8093C133.564 22.4653 132.994 20.6173 132.994 18.2653C132.994 16.7346 133.237 15.3813 133.722 14.2053C134.226 13.0106 134.936 12.0773 135.85 11.4053C136.784 10.7333 137.876 10.3973 139.126 10.3973C141.086 10.3973 142.589 11.0413 143.634 12.3293C144.68 13.6173 145.202 15.3999 145.202 17.6773ZM142.654 16.9213C142.654 15.4653 142.365 14.3546 141.786 13.5893C141.208 12.8239 140.34 12.4413 139.182 12.4413C137.073 12.4413 135.925 13.9906 135.738 17.0893H142.654V16.9213ZM155.728 10.3973C156.251 10.3973 156.736 10.4533 157.184 10.5653L156.708 13.0853C156.26 12.9733 155.831 12.9173 155.42 12.9173C154.506 12.9173 153.768 13.2533 153.208 13.9253C152.648 14.5973 152.21 15.6426 151.892 17.0613V25.4893H149.316V10.7333H151.528L151.78 13.7293C152.172 12.6279 152.704 11.7973 153.376 11.2373C154.048 10.6773 154.832 10.3973 155.728 10.3973ZM163.711 10.3973C164.719 10.3973 165.624 10.5373 166.427 10.8173C167.23 11.0973 167.995 11.5173 168.723 12.0773L167.631 13.7013C166.959 13.2719 166.315 12.9546 165.699 12.7493C165.102 12.5439 164.467 12.4413 163.795 12.4413C162.955 12.4413 162.292 12.6186 161.807 12.9733C161.322 13.3093 161.079 13.7759 161.079 14.3733C161.079 14.9706 161.303 15.4373 161.751 15.7733C162.218 16.1093 163.048 16.4359 164.243 16.7533C165.886 17.1639 167.108 17.7239 167.911 18.4333C168.732 19.1426 169.143 20.1133 169.143 21.3453C169.143 22.8013 168.574 23.9119 167.435 24.6773C166.315 25.4426 164.943 25.8253 163.319 25.8253C161.079 25.8253 159.222 25.1813 157.747 23.8933L159.119 22.3253C160.37 23.2773 161.751 23.7533 163.263 23.7533C164.234 23.7533 164.999 23.5573 165.559 23.1653C166.138 22.7546 166.427 22.2039 166.427 21.5133C166.427 21.0093 166.324 20.6079 166.119 20.3093C165.914 19.9919 165.559 19.7213 165.055 19.4973C164.551 19.2546 163.814 19.0026 162.843 18.7413C161.275 18.3306 160.136 17.7799 159.427 17.0893C158.736 16.3986 158.391 15.5213 158.391 14.4573C158.391 13.6919 158.615 13.0013 159.063 12.3853C159.53 11.7506 160.164 11.2653 160.967 10.9293C161.788 10.5746 162.703 10.3973 163.711 10.3973ZM183.193 25.4893L181.737 20.6453H174.429L172.973 25.4893H170.285L176.473 6.19726H179.833L185.993 25.4893H183.193ZM175.073 18.4893H181.093L178.097 8.40926L175.073 18.4893ZM191.628 6.19726V25.4893H188.968V6.19726H191.628Z" fill="white"/>
</svg>
